<?xml version="1.0" encoding="utf-8"?>
<!-- Generator: Adobe Illustrator 23.0.2, SVG Export Plug-In . SVG Version: 6.00 Build 0)  -->
<svg version="1.1" xmlns="http://www.w3.org/2000/svg" xmlns:xlink="http://www.w3.org/1999/xlink" x="0px" y="0px"
	 viewBox="0 0 155.48 131.52" style="enable-background:new 0 0 155.48 131.52;" xml:space="preserve">
<style type="text/css">
	.st0{display:none;fill:none;}
	.st1{fill:#FFFFFF;}
</style>
<g id="Layer_1">
</g>
<g id="Layer_2">
	<path class="st0" d="M-79.09,437.39c0,0-37.03-61.43-109.89-59.42s-123.08,63.36-124.61,120.24
		c-1.53,56.88,41.28,131.27,119.85,132.75c56.87,0.92,73.31-24.75,73.31-24.75c17.96-20.77,57.92-116.64,57.92-116.64l-101.4-0.06
		c0,0-6.8,18.53-14.68,39.5c-10.31,27.44-22.45,59.08-23.62,58.95c-2.06-0.23-66.73-63.75-66.96-65.12s38.06-92.87,39.44-94.24
		c1.38-1.38,104.33-11.69,107.08-11.46S-79.09,437.39-79.09,437.39z"/>
	<path class="st1" d="M147.04,37.83c-3.22-0.9-6.45-1.79-9.67-2.68c-18.74-5.17-37.49-10.3-56.2-15.54
		c-2.86-0.8-5.59-1.36-8.41-0.09c-0.16,0.07-0.35,0.1-0.52,0.15c-11.27,3.11-22.54,6.21-33.82,9.32
		c-10.66,2.94-21.32,5.89-31.98,8.84c-0.4,0.11-0.82,0.25-1.16,0.48c-0.79,0.55-1.12,1.35-0.96,2.29c0.19,1.15,0.96,1.73,2.05,2.02
		c11.1,3.05,22.2,6.1,33.31,9.16c0.8,0.22,1.59,0.47,2.46,0.73c-0.22,0.31-0.35,0.5-0.49,0.69c-5.33,7.38-8.11,15.63-8.36,24.73
		c-0.06,2.23,0.33,2.76,2.45,3.51c4.58,1.61,9.15,3.21,13.73,4.82c8.72,3.08,17.44,6.18,26.17,9.22c0.65,0.23,1.49,0.18,2.18,0
		c1.28-0.34,2.5-0.87,3.75-1.31c12.1-4.27,24.21-8.53,36.31-12.8c1.95-0.69,2.35-1.26,2.29-3.34c-0.23-9.16-3.02-17.47-8.41-24.89
		c-0.13-0.18-0.24-0.38-0.42-0.67c6.21-1.71,12.32-3.4,18.49-5.1c0.03,0.26,0.05,0.41,0.05,0.56c0.01,9.45,0.02,18.9-0.01,28.35
		c0,0.29-0.3,0.7-0.58,0.84c-2.64,1.32-4.1,3.43-4.19,6.38c-0.1,3,1.3,5.2,3.91,6.63c0.46,0.25,0.56,0.47,0.49,0.97
		c-1.09,7.52-2.15,15.05-3.22,22.57c-0.38,2.66-0.78,5.31-1.15,7.97c-0.26,1.85,0.68,3.08,2.38,3.1c3.2,0.03,6.4,0.02,9.6,0
		c1.47-0.01,2.47-1.14,2.35-2.61c-0.04-0.57-0.16-1.13-0.24-1.7c-1.37-9.62-2.74-19.23-4.14-28.84c-0.12-0.85,0.1-1.25,0.85-1.68
		c2.39-1.38,3.6-3.56,3.55-6.3c-0.06-2.89-1.45-5.06-4.06-6.36c-0.57-0.28-0.77-0.58-0.77-1.21c0.02-9.66,0.01-19.33,0.01-28.99
		c0-0.3,0-0.6,0-1c4.16-1.15,8.23-2.27,12.29-3.39c1.47-0.4,2.18-1.17,2.2-2.38C149.19,39.09,148.45,38.22,147.04,37.83z
		 M115.32,75.99c0.07,0.87-0.1,1.29-1.02,1.61c-12.2,4.26-24.38,8.58-36.57,12.9c-0.69,0.24-1.31,0.26-2,0.01
		c-12.27-4.35-24.54-8.68-36.82-13c-0.64-0.23-0.87-0.52-0.82-1.22c0.6-8.22,3.51-15.53,8.71-21.92c0.18-0.23,0.68-0.39,0.96-0.32
		c7.62,2.07,15.23,4.17,22.84,6.27l0,0c0,0,4.29,1.6,6.11,1.65c0.02,0,0.04,0,0.07,0c1.8,0,17.92-4.92,17.92-4.92l0,0
		c3.61-0.99,7.22-1.99,10.82-3c0.5-0.14,0.8-0.11,1.15,0.33C111.77,60.72,114.65,67.9,115.32,75.99z M130.22,119.91
		c0.66-4.63,1.31-9.2,1.96-13.78c0.07,0,0.14-0.01,0.21-0.01c0.66,4.57,1.31,9.15,1.98,13.79
		C132.99,119.91,131.68,119.91,130.22,119.91z M134.72,83.76c-0.03,1.35-1.17,2.43-2.54,2.4c-1.23-0.03-2.35-1.18-2.35-2.42
		c0-1.36,1.13-2.49,2.47-2.47C133.67,81.28,134.75,82.39,134.72,83.76z M132.09,41.73c-1.22,0.2-2.52-0.08-3.78-0.17
		c-4.62-0.33-9.24-0.67-13.86-0.99l0,0l-13.87-1.02c-0.35-0.03-0.7-0.06-1.05-0.08c-0.94-0.07-1.89-0.14-2.83-0.21l-0.48-0.04l0,0
		c-6.27-0.45-12.54-0.91-18.81-1.37c-1.39-0.1-2.34,0.31-2.83,1.32c-0.44,0.9-0.28,2.09,0.51,2.73c0.46,0.37,1.11,0.66,1.7,0.7
		c3.72,0.29,7.44,0.55,11.17,0.82l0,0l9.38,0.67c0.13,0.01,0.26,0.02,0.39,0.03c0,0,0,0,0.01,0l15.41,1.1
		c1.49,0.11,2.99,0.22,4.48,0.33c0.01,0.07,0.03,0.14,0.04,0.22c-6.33,1.75-33.54,9.22-33.54,9.22l-0.01,0
		c-1.03,0.26-2.04,0.53-3.01,0.9c-2.95,1.11-5.74,0.9-8.76,0.04c-14.02-4.01-28.1-7.83-42.16-11.71c-4.73-1.31-9.47-2.6-14.35-3.94
		c0.29-0.14,0.45-0.25,0.62-0.3c15.13-4.18,30.27-8.35,45.4-12.53c4.5-1.24,9.01-2.47,13.5-3.74c0.87-0.24,1.68-0.29,2.57-0.04
		c15.8,4.37,31.61,8.72,47.41,13.08c3.78,1.04,7.55,2.1,11.32,3.15c0.28,0.08,0.56,0.17,1.08,0.34
		C135.69,40.8,133.92,41.44,132.09,41.73z"/>
</g>
</svg>
